<?xml version="1.0" standalone="no"?>
<!DOCTYPE svg PUBLIC "-//W3C//DTD SVG 20010904//EN"
 "http://www.w3.org/TR/2001/REC-SVG-20010904/DTD/svg10.dtd">
<svg version="1.0" xmlns="http://www.w3.org/2000/svg"
 width="512.000000pt" height="512.000000pt" viewBox="0 0 512.000000 512.000000"
 preserveAspectRatio="xMidYMid meet">
<metadata>
Created by potrace 1.11, written by Peter Selinger 2001-2013
</metadata>
<g transform="translate(0.000000,512.000000) scale(0.100000,-0.100000)"
fill="#000000" stroke="none">
<path d="M2335 4924 c-22 -3 -95 -14 -163 -25 -492 -81 -932 -308 -1287 -664
-356 -356 -575 -779 -667 -1292 -20 -111 -23 -161 -23 -383 0 -222 3 -272 23
-383 92 -513 311 -936 667 -1292 356 -356 779 -575 1292 -667 111 -20 161 -23
383 -23 222 0 272 3 383 23 513 92 936 311 1292 667 356 356 575 779 667 1292
20 111 23 161 23 383 0 222 -3 272 -23 383 -92 513 -311 936 -667 1292 -354
355 -782 576 -1286 665 -98 18 -171 23 -349 25 -124 2 -243 1 -265 -1z m559
-633 c380 -76 735 -279 984 -563 260 -295 419 -677 439 -1055 l6 -113 -186 0
-185 0 -7 88 c-27 346 -166 653 -405 892 -196 195 -432 322 -710 381 -84 18
-138 22 -270 22 -132 0 -186 -4 -270 -22 -278 -59 -514 -186 -710 -381 -239
-239 -378 -546 -405 -892 l-7 -88 -185 0 -186 0 6 113 c24 450 246 904 589
1205 236 208 536 356 835 411 154 29 158 29 368 26 146 -2 215 -8 299 -24z
m-89 -739 c433 -114 742 -478 772 -908 l6 -84 -185 0 -185 0 -11 78 c-22 159
-78 270 -191 382 -58 58 -96 85 -161 117 -109 53 -172 67 -290 67 -118 0 -181
-14 -290 -67 -120 -58 -229 -167 -287 -287 -53 -109 -67 -172 -67 -290 0 -118
14 -181 67 -290 32 -65 59 -103 117 -161 112 -113 223 -169 382 -191 l78 -11
0 -185 0 -185 -84 6 c-378 27 -724 283 -864 638 -54 138 -67 209 -67 379 0
170 13 241 67 379 119 304 394 541 713 614 109 25 112 26 260 23 103 -2 161
-9 220 -24z m-135 -786 c215 -107 132 -439 -110 -439 -223 0 -320 285 -143
420 72 55 167 62 253 19z"/>
</g>
</svg>
